Coordinates
version=1
nRows=16
nColumns=33
inDegrees=yes

Units are S.I. units (second, meters, Newtons, ...)
Angles are in degrees.

endheader
time	ground_thorax_rot_x	ground_thorax_rot_y	ground_thorax_rot_z	ground_thorax_tx	ground_thorax_ty	ground_thorax_tz	clav_prot_r	clav_elev_r	scapula_abduction_r	scapula_elevation_r	scapula_upward_rot_r	scapula_winging_r	shoulder_elv_r	plane_of_elev_r	axial_rot_r	elbow_flexion_r	pro_sup_r	wrist_flex_r	wrist_dev_r	clav_prot_l	clav_elev_l	scapula_abduction_l	scapula_elevation_l	scapula_upward_rot_l	scapula_winging_l	shoulder_elv_l	plane_of_elev_l	axial_rot_l	elbow_flexion_l	pro_sup_l	wrist_flex_l	wrist_dev_l
      3.44000000	     32.63145088	     25.55049604	     30.81355731	    -88.51481647	    865.12868140	    -41.62689287	     -0.49944361	     39.59465714	     38.33037909	     45.00000000	     17.00121725	   2037.59248223	    980.64150640	    143.35309506	   -179.99999979	   1064.58396128	     67.99788826	     24.86721651	     14.16542927	     -5.87292892	    -45.00000000	    -40.90460492	     45.00000000	    -45.00000000	   1906.90410851	  -2801.11833562	     25.29531267	     25.09159036	   2150.73166227	     50.48324811	     10.77917700	    -24.10514631
      3.45000000	     32.54897193	     25.73834207	     31.21201918	    -87.78088911	    863.88108088	    -41.52506552	      0.08429100	     39.40850224	     38.58370611	     45.00000000	     15.37682814	   2037.51721283	    980.18054210	    143.28903834	   -179.99999979	   1064.50510876	     67.32764687	     24.95613059	     14.15290981	     -5.56089265	    -45.00000000	    -40.75761021	     45.00000000	    -45.00000000	   1906.78668828	  -2801.17478715	     25.06172163	     24.72619437	   2150.79131182	     50.70154768	     10.63717202	    -23.98593521
      3.46000000	     32.44229114	     25.86609383	     31.50000781	    -86.95723086	    862.61871844	    -41.40844957	      0.15253488	     39.63903694	     38.53096965	     45.00000000	     15.21660978	   2037.43084146	    980.03204117	    143.26872127	   -179.99999979	   1064.50869921	     66.95332274	     24.89082569	     14.31291368	     -5.80632855	    -45.00000000	    -40.68875207	     45.00000000	    -45.00000000	   1906.83922397	  -2801.28733118	     25.12649136	     24.45749990	   2150.78095095	     50.80214916	     10.58832522	    -23.94322741
      3.47000000	     32.44782829	     25.82328814	     31.53543358	    -86.07689645	    861.36550697	    -41.27624625	      0.11565969	     39.43467807	     38.66951721	     45.00000000	     15.03624394	   2037.28587430	    979.89765506	    143.28411083	   -179.99999979	   1064.49277900	     66.61214406	     24.91863985	     14.21081545	     -5.72907231	    -45.00000000	    -40.56216202	     45.00000000	    -45.00000000	   1906.60367177	  -2801.34282653	     25.10177839	     24.46146571	   2150.84322824	     50.79822898	     10.51408804	    -23.94597162
      3.48000000	     32.37109144	     25.96545865	     31.79572976	    -85.16733387	    860.13567942	    -41.12808886	      0.14757166	     39.80074304	     38.57175090	     45.00000000	     15.07217758	   2037.17780794	    979.73118348	    143.21481262	   -179.99999979	   1064.49461945	     66.39367059	     24.83511835	     14.42872942	     -5.98347937	    -45.00000000	    -40.56997082	     45.00000000	    -45.00000000	   1906.67097966	  -2801.40554209	     25.12812638	     24.51676320	   2150.72561616	     50.77808827	     10.50108474	    -24.14335146
      3.49000000	     32.50557124	     25.86271723	     31.72707642	    -84.25886981	    858.95752409	    -40.96714122	      0.05263312	     39.39353853	     38.81934895	     45.00000000	     14.96008980	   2037.12175670	    979.64424879	    143.32676505	   -179.99999979	   1064.46066952	     66.05497936	     24.89237002	     14.23870009	     -5.86152082	    -45.00000000	    -40.34550410	     45.00000000	    -45.00000000	   1906.44534878	  -2801.49337959	     25.05096504	     24.53718472	   2150.78579353	     50.71217972	     10.40014594	    -24.02596198
      3.50000000	     32.52734546	     25.84352708	     31.82890402	    -83.36622288	    857.85269802	    -40.79794558	      0.08064527	     39.75764389	     38.73221735	     45.00000000	     15.01979382	   2037.13716640	    979.46345413	    143.27393414	   -179.99999979	   1064.46702969	     65.75087672	     24.84101002	     14.48861558	     -6.08283519	    -45.00000000	    -40.39573405	     45.00000000	    -45.00000000	   1906.53081550	  -2801.61758187	     25.14742837	     24.77970149	   2150.67314335	     50.52342485	     10.48117035	    -24.17262923
      3.51000000	     32.44721620	     25.97933715	     32.08949240	    -82.48322259	    856.83546234	    -40.62592476	      0.06982278	     39.62999199	     38.83158559	     45.00000000	     15.00142225	   2037.00014765	    979.48042510	    143.17093288	   -179.99999979	   1064.30861438	     65.40492620	     24.73496835	     14.50987413	     -6.05994787	    -45.00000000	    -40.30801626	     45.00000000	    -45.00000000	   1906.32750320	  -2801.54009501	     24.97542166	     24.78011830	   2150.65340937	     50.27940453	     10.37549927	    -24.03677423
      3.52000000	     32.44283193	     26.01039991	     32.10833431	    -81.59730438	    855.92776127	    -40.45895379	      0.02210160	     39.80946153	     38.65695884	     45.00000000	     15.08135563	   2037.05980466	    979.30361180	    143.22392453	   -179.99999979	   1064.41626901	     65.00784054	     24.71461813	     14.64122449	     -6.12182820	    -45.00000000	    -40.39806738	     45.00000000	    -45.00000000	   1906.37432090	  -2801.67465531	     25.15026335	     24.90491915	   2150.62820197	     49.95813792	     10.49065592	    -23.95872777
      3.53000000	     32.48613546	     25.95472291	     32.13937574	    -80.68306631	    855.14443588	    -40.30416853	     -0.17615392	     39.77034803	     38.75594581	     45.00000000	     15.29198021	   2037.11050947	    979.35876814	    143.29197587	   -179.99999979	   1064.35964380	     64.51932151	     24.68076450	     14.70800633	     -6.02342957	    -45.00000000	    -40.35727670	     45.00000000	    -45.00000000	   1906.24553152	  -2801.68184020	     25.11832079	     25.13615313	   2150.57792634	     49.46099873	     10.53740543	    -24.08932253
      3.54000000	     32.46388232	     25.97431783	     32.16217713	    -79.71696262	    854.49991014	    -40.16780041	     -0.32522398	     39.80359851	     38.84557944	     45.00000000	     15.53965174	   2037.03697913	    979.36663704	    143.39235053	   -179.99999979	   1064.39561036	     63.99819958	     24.59442278	     14.79823468	     -5.99486184	    -45.00000000	    -40.37747639	     45.00000000	    -45.00000000	   1906.19147220	  -2801.70044519	     25.21548024	     25.35311154	   2150.55003677	     48.95411829	     10.63280416	    -24.05228038
      3.55000000	     32.36933355	     26.11152206	     32.32198593	    -78.67906455	    854.00257259	    -40.05283517	     -0.45929277	     39.79595089	     38.61681061	     45.00000000	     15.74568254	   2037.25279040	    979.31149868	    143.35545712	   -179.99999979	   1064.09329639	     63.60428450	     24.35701575	     14.93109425	     -5.90132774	    -45.00000000	    -40.58913669	     45.00000000	    -45.00000000	   1906.07409413	  -2801.73342604	     25.14388333	     25.60923044	   2150.56118332	     48.45002603	     10.71368849	    -23.92747289
      3.56000000	     32.44023319	     25.92281767	     32.21980452	    -77.56268792	    853.65551196	    -39.95966058	     -0.40048136	     39.79010921	     39.05836138	     45.00000000	     16.04482911	   2036.89686587	    979.39028302	    143.36477295	   -179.99999979	   1064.31730364	     63.06361369	     24.42279429	     15.02733496	     -6.07902004	    -45.00000000	    -40.43499578	     45.00000000	    -45.00000000	   1905.99005705	  -2801.66776192	     25.32782962	     25.98837396	   2150.52891809	     47.82154735	     10.86231409	    -23.93535412
      3.57000000	     32.32472470	     26.10276160	     32.42404278	    -76.35702111	    853.44766265	    -39.88470920	     -0.72692089	     39.83468751	     38.77920579	     45.00000000	     16.39379374	   2037.20241565	    979.47817721	    143.49136988	   -179.99999979	   1064.25833498	     62.64567952	     24.27902666	     15.09899254	     -5.92883062	    -45.00000000	    -40.71893340	     45.00000000	    -45.00000000	   1905.82935671	  -2801.73870521	     25.24154355	     26.35985200	   2150.55014756	     47.26196307	     10.99354731	    -23.83105308
      3.58000000	     32.44189253	     25.83435221	     32.30058094	    -75.06083632	    853.36123537	    -39.82473903	     -0.57486531	     39.73057061	     39.24982064	     45.00000000	     16.86718547	   2036.76900657	    979.42093695	    143.29975333	   -179.99999979	   1064.20040529	     62.19922126	     24.33761898	     15.32494946	     -6.04975100	    -45.00000000	    -40.34361173	     45.00000000	    -45.00000000	   1905.80645865	  -2801.60664829	     25.59865379	     26.90912685	   2150.42076585	     46.62920522	     11.17690984	    -23.84458301
      3.59000000	     32.33027256	     26.06605863	     32.46474567	    -73.67196647	    853.36971307	    -39.77649018	     -0.97118760	     39.83497973	     38.99899855	     45.00000000	     17.24803610	   2037.16141602	    979.65153669	    143.55704241	   -179.99999979	   1064.20667761	     61.82841190	     24.16485599	     15.33111162	     -6.04566980	    -45.00000000	    -40.70784665	     45.00000000	    -45.00000000	   1905.53372293	  -2801.65340877	     25.43729902	     27.40945347	   2150.57359716	     46.09062941	     11.30979914	    -23.73621671
